<?xml version="1.0" encoding="UTF-8"?>
<svg xmlns="http://www.w3.org/2000/svg" version="1.1" viewBox="0 0 472.45 432.95">
  <!-- Generator: Adobe Illustrator 30.3.0, SVG Export Plug-In . SVG Version: 2.1.3 Build 182)  -->
  <defs>
    <style>
      .st0 {
        isolation: isolate;
      }

      .st1 {
        fill: #7b7b7b;
        mix-blend-mode: multiply;
        opacity: .18;
      }

      .st2 {
        fill: #fff;
      }
    </style>
  </defs>
  <g class="st0">
    <g id="Layer_1">
      <g>
        <rect class="st2" x="4.71" y="17.4" width="71.76" height="283.06" rx="35.88" ry="35.88"/>
        <path class="st2" d="M135.38,187.3l29.42-29.73,144.96,137.9c2.53,2.41.81,6.67-2.68,6.65l-81-.45c-7.19-.04-14.06-2.92-19.13-8.02l-71.83-72.26c-9.41-9.46-9.29-24.78.26-34.1Z"/>
        <path class="st1" d="M164.8,157.57l8.66,8.68-21.98,20.96c-4.73,4.51-8.24,10.05-11.21,15.88-4.14,8.11-.14,22.87-.14,22.87,0,0-9.84-8.1-11.3-17.75-1.33-8.74,3.22-15.86,6.2-19.59,5.08-6.38,21.36-22.47,21.36-22.47l8.42-8.57Z"/>
        <path class="st2" d="M133.55,219.72l-39.3-37.25c-12.84-12.09-13.13-32.41-.63-44.86L202.96,28.69c8.35-8.32,19.68-12.94,31.46-12.84l105.98.91c6.94.06,13.82,1.17,20.43,3.28,30.06,9.63,107.24,43.47,106.92,134.62-.41,117.27-82.27,140.21-88.22,143.32-2.25,1.18-20.09,4.81-23.7,4.81-9.1,0-17.81-3.69-24.16-10.2l-33.84-35.16c-2.04-2.08-.56-5.58,2.36-5.56l30.64.23c9.43-2.37,74.21-16.99,73.36-89.79-.79-67.42-69.84-80.09-81.99-80.31l-46.95-.82-18.27.6c-10.6.35-20.68,4.65-28.25,12.07l-42.33,41.44-50.14,51.62c-5.07,5.22-7.52,14.36-7.32,19.58.28,7.3,4.62,13.23,4.62,13.23Z"/>
      </g>
      <g>
        <path class="st2" d="M5.16,422.09v-43.28h5.86v43.28h-5.86ZM31.92,422.09l-21.83-22.58,21.39-20.71h7.61l-23.08,22.2v-3.24l23.7,24.32h-7.8Z"/>
        <path class="st2" d="M58.05,422.09v-43.28h4.12l1.75,6.8v36.49h-5.86ZM87.99,422.09l-26.57-35.49.75-7.8,26.63,35.43-.81,7.86ZM87.99,422.09l-1.75-6.42v-36.86h5.86v43.28h-4.12Z"/>
        <path class="st2" d="M134.52,422.72c-3.08,0-5.95-.57-8.61-1.72-2.66-1.14-4.99-2.74-6.99-4.8-2-2.06-3.54-4.44-4.65-7.14-1.1-2.7-1.65-5.59-1.65-8.67s.55-6.02,1.65-8.7c1.1-2.68,2.64-5.04,4.62-7.08,1.97-2.04,4.28-3.62,6.92-4.74,2.64-1.12,5.5-1.68,8.58-1.68s5.93.56,8.58,1.68c2.64,1.12,4.96,2.7,6.95,4.74,2,2.04,3.55,4.41,4.68,7.11,1.12,2.7,1.68,5.61,1.68,8.73s-.56,5.97-1.68,8.67c-1.12,2.7-2.67,5.07-4.65,7.11-1.98,2.04-4.28,3.63-6.92,4.77-2.64,1.14-5.48,1.72-8.51,1.72ZM134.39,417.1c3.12,0,5.85-.72,8.2-2.15,2.35-1.43,4.21-3.41,5.58-5.92,1.37-2.52,2.06-5.39,2.06-8.64,0-2.41-.4-4.62-1.18-6.64-.79-2.02-1.89-3.77-3.31-5.27-1.41-1.5-3.08-2.65-4.99-3.46-1.91-.81-4.03-1.22-6.36-1.22-3.08,0-5.79.71-8.14,2.12-2.35,1.41-4.2,3.37-5.55,5.86-1.35,2.5-2.03,5.36-2.03,8.61,0,2.41.38,4.65,1.15,6.7.77,2.06,1.85,3.83,3.24,5.3,1.39,1.48,3.06,2.63,4.99,3.46,1.93.83,4.04,1.25,6.33,1.25Z"/>
        <path class="st2" d="M185.84,422.09l-14.16-43.28h5.86l11.23,35.3h-1.68l11.04-35.3h4.24l11.04,35.3h-1.62l11.23-35.3h5.8l-14.1,43.28h-4.18l-11.1-35.24h1.62l-11.04,35.24h-4.18Z"/>
        <path class="st2" d="M249.15,422.09v-42.54h3.3v42.54h-3.3ZM250.9,422.09v-3.06h13.22c3.58,0,6.73-.78,9.45-2.34,2.72-1.56,4.85-3.71,6.39-6.46,1.54-2.74,2.31-5.9,2.31-9.48s-.77-6.67-2.31-9.42-3.68-4.88-6.42-6.42c-2.74-1.54-5.88-2.31-9.42-2.31h-13.04v-3.06h13.1c3.12,0,5.99.53,8.61,1.59,2.62,1.06,4.9,2.54,6.83,4.43,1.93,1.89,3.43,4.14,4.49,6.74,1.06,2.6,1.59,5.44,1.59,8.51s-.53,5.85-1.59,8.45c-1.06,2.6-2.55,4.85-4.46,6.77s-4.18,3.4-6.8,4.46c-2.62,1.06-5.47,1.59-8.54,1.59h-13.41Z"/>
        <path class="st2" d="M307.71,422.09v-42.54h3.3v42.54h-3.3ZM309.71,402.57v-2.81h13.16c3.12,0,5.51-.79,7.17-2.37,1.66-1.58,2.49-3.68,2.49-6.3s-.82-4.66-2.46-6.24c-1.64-1.58-4.04-2.37-7.2-2.37h-13.16v-2.93h13.04c2.74,0,5.09.49,7.05,1.47,1.95.98,3.45,2.33,4.49,4.05,1.04,1.73,1.56,3.73,1.56,6.02s-.52,4.29-1.56,6.02-2.54,3.07-4.49,4.02c-1.96.96-4.3,1.43-7.05,1.43h-13.04ZM334.66,422.09l-16.47-20.27,3.31-.87,17.46,21.14h-4.3Z"/>
        <path class="st2" d="M358.92,422.09v-42.54h3.3v42.54h-3.3Z"/>
        <path class="st2" d="M400.02,422.09l-16.78-42.54h3.55l15.28,39.11h-1.37l15.41-39.11h3.49l-16.9,42.54h-2.68Z"/>
        <path class="st2" d="M440.62,422.09v-42.54h3.3v42.54h-3.3ZM442.74,382.55v-2.99h25.26v2.99h-25.26ZM442.74,401.7v-2.87h23.64v2.87h-23.64ZM442.74,422.09v-2.99h25.57v2.99h-25.57Z"/>
      </g>
    </g>
  </g>
</svg>