<?xml version="1.0" encoding="UTF-8"?>
<svg xmlns="http://www.w3.org/2000/svg" version="1.1" viewBox="0 0 472.45 327.79">
  <!-- Generator: Adobe Illustrator 30.3.0, SVG Export Plug-In . SVG Version: 2.1.3 Build 182)  -->
  <defs>
    <style>
      .st0 {
        isolation: isolate;
      }

      .st1 {
        fill: #7b7b7b;
        mix-blend-mode: multiply;
        opacity: .18;
      }

      .st2 {
        fill: #fff;
      }
    </style>
  </defs>
  <g class="st0">
    <g id="Layer_1">
      <g>
        <rect class="st2" x="4.71" y="22.4" width="71.76" height="283.06" rx="35.88" ry="35.88"/>
        <path class="st2" d="M135.38,192.3l29.42-29.73,144.96,137.9c2.53,2.41.81,6.67-2.68,6.65l-81-.45c-7.19-.04-14.06-2.92-19.13-8.02l-71.83-72.26c-9.41-9.46-9.29-24.78.26-34.1Z"/>
        <path class="st1" d="M164.8,162.57l8.66,8.68-21.98,20.96c-4.73,4.51-8.24,10.05-11.21,15.88-4.14,8.11-.14,22.87-.14,22.87,0,0-9.84-8.1-11.3-17.75-1.33-8.74,3.22-15.86,6.2-19.59,5.08-6.38,21.36-22.47,21.36-22.47l8.42-8.57Z"/>
        <path class="st2" d="M133.55,224.72l-39.3-37.25c-12.84-12.09-13.13-32.41-.63-44.86l109.34-108.91c8.35-8.32,19.68-12.94,31.46-12.84l105.98.91c6.94.06,13.82,1.17,20.43,3.28,30.06,9.63,107.24,43.47,106.92,134.62-.41,117.27-82.27,140.21-88.22,143.32-2.25,1.18-20.09,4.81-23.7,4.81-9.1,0-17.81-3.69-24.16-10.2l-33.84-35.16c-2.04-2.08-.56-5.58,2.36-5.56l30.64.23c9.43-2.37,74.21-16.99,73.36-89.79-.79-67.42-69.84-80.09-81.99-80.31l-46.95-.82-18.27.6c-10.6.35-20.68,4.65-28.25,12.07l-42.33,41.44-50.14,51.62c-5.07,5.22-7.52,14.36-7.32,19.58.28,7.3,4.62,13.23,4.62,13.23Z"/>
      </g>
    </g>
  </g>
</svg>