<?xml version="1.0" encoding="UTF-8"?>
<svg xmlns="http://www.w3.org/2000/svg" xmlns:xlink="http://www.w3.org/1999/xlink" version="1.1" viewBox="0 0 474.05 301.99">
  <!-- Generator: Adobe Illustrator 30.3.0, SVG Export Plug-In . SVG Version: 2.1.3 Build 182)  -->
  <defs>
    <style>
      .st0 {
        fill: url(#linear-gradient2);
      }

      .st1 {
        fill: url(#linear-gradient1);
      }

      .st2 {
        fill: url(#linear-gradient);
      }

      .st3, .st4 {
        isolation: isolate;
      }

      .st4 {
        fill: #767576;
        mix-blend-mode: multiply;
        opacity: .38;
      }
    </style>
    <linearGradient id="linear-gradient" x1="42.2" y1="410.94" x2="42.2" y2="127.88" gradientTransform="translate(0 420) scale(1 -1)" gradientUnits="userSpaceOnUse">
      <stop offset="0" stop-color="#2483c5" stop-opacity=".8"/>
      <stop offset=".88" stop-color="#2e3191"/>
    </linearGradient>
    <linearGradient id="linear-gradient1" x1="221.16" y1="270.77" x2="221.16" y2="126.22" gradientTransform="translate(0 420) scale(1 -1)" gradientUnits="userSpaceOnUse">
      <stop offset="0" stop-color="#2483c5" stop-opacity=".5"/>
      <stop offset=".79" stop-color="#1b75bb"/>
    </linearGradient>
    <linearGradient id="linear-gradient2" x1="277.7" y1="412.49" x2="277.7" y2="125.55" gradientTransform="translate(0 420) scale(1 -1)" gradientUnits="userSpaceOnUse">
      <stop offset="0" stop-color="#2483c5" stop-opacity=".8"/>
      <stop offset=".88" stop-color="#2e3191"/>
    </linearGradient>
  </defs>
  <g class="st3">
    <g id="Layer_1">
      <path class="st2" d="M42.2,9.06h0c19.82,0,35.88,16.06,35.88,35.88v211.3c0,19.82-16.06,35.88-35.88,35.88h0c-19.82,0-35.88-16.06-35.88-35.88V44.94C6.32,25.12,22.38,9.06,42.2,9.06Z"/>
      <path class="st1" d="M136.99,178.96l29.42-29.73,144.96,137.9c2.53,2.41.81,6.67-2.68,6.65l-81-.45c-7.19-.04-14.06-2.92-19.13-8.02l-71.83-72.26c-9.41-9.46-9.29-24.78.26-34.1h0Z"/>
      <path class="st4" d="M166.41,149.23l8.66,8.68-21.98,20.96c-4.73,4.51-8.24,10.05-11.21,15.88-4.14,8.11-.14,22.87-.14,22.87,0,0-9.84-8.1-11.3-17.75-1.33-8.74,3.22-15.86,6.2-19.59,5.08-6.38,21.36-22.47,21.36-22.47l8.42-8.57h0Z"/>
      <path class="st0" d="M138.25,214.32l-42.4-40.2c-12.84-12.09-13.13-32.41-.63-44.86L204.57,20.35c8.35-8.32,19.68-12.94,31.46-12.84l105.98.91c6.94.06,13.82,1.17,20.43,3.28,30.06,9.63,107.24,43.47,106.92,134.62-.41,117.27-82.27,140.21-88.22,143.32-2.25,1.18-20.09,4.81-23.7,4.81-9.1,0-17.81-3.69-24.16-10.2l-33.84-35.16c-2.04-2.08-.56-5.58,2.36-5.56l30.64.23c9.43-2.37,74.21-16.99,73.36-89.79-.79-67.42-69.84-80.09-81.99-80.31l-46.95-.82-18.27.6c-10.6.35-20.68,4.65-28.25,12.07l-42.33,41.44-49.33,51.26c-6.44,6.61-7.88,14.36-7.68,19.58.28,7.3,7.27,16.52,7.27,16.52h-.02Z"/>
    </g>
  </g>
</svg>