<?xml version="1.0" encoding="UTF-8"?>
<svg id="Layer_1" xmlns="http://www.w3.org/2000/svg" version="1.1" viewBox="0 0 282.6 255.06">
  <!-- Generator: Adobe Illustrator 30.4.0, SVG Export Plug-In . SVG Version: 2.1.4 Build 226)  -->
  <defs>
    <style>
      .st0 {
        fill: #070101;
      }

      .st1 {
        fill: #080303;
      }
    </style>
  </defs>
  <path class="st1" d="M4.06,180.08l.03-17.85c1.21-7.11,2.58-13.94,3.12-21.12.27-3.62,2.12-5.5,4-8.08,6.26-8.55,12.18-16.61,19.36-24.59,18.58-20.65,38.4-39,60.51-56.05C125.33,25.98,165.61,8.98,208.68,3.91c11.74-1.38,22.79-1.07,33.46,2.4,9.12,2.96,13.74,11.2,11.58,20.51-4.15,22.47-25.01,43.64-47.08,50.71-2.41,24.54-20.22,44.66-44.57,48.94-.66,5.97-3.2,11.08-6.08,15.97-.07,1.72,3.94,3.76,5.53,2.53,12-9.3,26.01-15.15,41.34-15.54l10.96,1.15c13.85-9.83,31.12-20.22,47.81-19.09,9.88.67,17.07,7.51,18.44,17.36,1.01,7.23.17,14.59-2.26,21.82-10.29,30.7-31.02,55.75-58.67,72.75-45.71,28.09-106.59,38.68-157.54,20.7-3.38,2.14-6.5,4.44-10.19,5.35-1.44.35-2.44-1.83-3.22-2.28l-5.85-3.37c-12.77-7.36-23.02-18.41-29.42-31.68l-3.68-7.64c-2.09-4.34-3.44-9.01-3.99-13.8l-1.21-10.62ZM175.1,20.32c-3.7.54-8.18,1.87-12.23,3.41-45.93,17.39-89.69,52.52-120.41,90.58-6.47,8.02-11.29,16.47-15.02,25.86-6.48,16.32-4.17,32.49,4.54,48.66-13.54-10.34-17-27.44-15.56-43.75-14.78,27.15,4.86,53.98,29.68,69.47,52.28,32.62,118.12,25.3,168.28-8.93,23.1-15.77,40.69-37.26,51.62-62.89,2.09-4.89,3.23-9.58,3.54-14.33,1.02-15.75-27.17-7.04-42.92,4.83l-11.38,8.57c-11.68-6.3-25.07-2.58-37.26,3.56-1.16.58-1.78,1.22-1.89,2.31-5.92,1.55-10.37,5.95-15.56,10.59-18.18-10.02-31.07,5.55-52.29,11.91-14.59,4.37-29.88,4.2-43.17-2.66,32.28,1.54,67.67-10.73,79.3-42.44l-10.06-1.04-21.9-4.35c-.1-.66.2-.98.87-.98,35.31.19,67.2-6.98,81.02-42.37-1.66-1.19-3.52-.69-5.08-.89l-16.54-2.51c28.84-3.76,54.44-19.95,67.81-46.35,1.57-3.37,2.74-6.61,1.55-9.75-4.63-12.18-50.58-3.46-66.94,3.5ZM26.54,204.59c-3.6-4.53-6.68-9.22-12.21-10.73,7.53,20.03,23.39,35.9,44.58,40.24-12.29-8.75-23.52-17.16-32.37-29.51Z"/>
  <path class="st0" d="M109.72,86.53c-8.39,10.39-21.14,23.26-28.45,14.47-2.17-2.61-1.59-6.65.94-9.77,20.75-25.68,47.44-45.18,77.68-58.61,11.71-4.33,22.46-9.54,35.67-9.69-22.33,7.69-42.24,18.55-59.48,34.65-9.95,8.69-17.82,18.4-26.35,28.95Z"/>
  <path class="st1" d="M254.93,129.02c-14.65,5.36-26.46,13.07-39.49,21.8,5.9-12.19,27.24-23.65,39.49-21.8Z"/>
  <path class="st1" d="M204.43,144.86l.95.77-39.37,15.84c9.84-10.26,24.46-15.45,38.42-16.61Z"/>
</svg>